<?xml version="1.0" encoding="UTF-8"?>
<svg version="1.1" xmlns="http://www.w3.org/2000/svg" width="80" height="80">
<path d="M0 0 C0.69931641 -0.020625 1.39863281 -0.04125 2.11914062 -0.0625 C7.86511766 -0.10550076 11.82002684 1.1056903 16.09375 4.9765625 C16.6196875 5.60304688 17.145625 6.22953125 17.6875 6.875 C18.28046875 7.58011719 18.8734375 8.28523438 19.484375 9.01171875 C21.1264886 11.16981759 22.52721679 13.37350082 23.9375 15.6875 C27.05915932 20.63439182 31.2596147 23.66105721 35.9921875 27.01171875 C38.1875 29.25 38.1875 29.25 38.5703125 32.45703125 C38.1875 35.25 38.1875 35.25 37.1875 36.25 C34.17759317 36.74564334 32.06085905 36.79067377 29.41601562 35.15332031 C27.5213528 33.6242762 25.72400071 32.02902714 23.9375 30.375 C23.00164063 29.54162109 23.00164063 29.54162109 22.046875 28.69140625 C19.70291326 26.59497496 17.41134784 24.47384784 15.1875 22.25 C14.8575 26.21 14.5275 30.17 14.1875 34.25 C15.5075 34.91 16.8275 35.57 18.1875 36.25 C20.10506629 37.55188376 21.99968672 38.88795671 23.875 40.25 C25.33486328 41.301875 25.33486328 41.301875 26.82421875 42.375 C29.1875 44.25 29.1875 44.25 30.1875 46.25 C30.64862617 52.59048482 30.64862617 52.59048482 29 54.94839478 C26.55138993 56.70680783 24.93948126 56.63059021 21.9375 56.63818359 C20.86628906 56.64764008 19.79507813 56.65709656 18.69140625 56.6668396 C16.95697266 56.65773056 16.95697266 56.65773056 15.1875 56.6484375 C14.00027344 56.65130768 12.81304687 56.65417786 11.58984375 56.65713501 C9.07812015 56.65917777 6.56638072 56.65363322 4.0546875 56.64111328 C0.20276428 56.6250636 -3.64810955 56.64095588 -7.5 56.66015625 C-9.93750232 56.65817386 -12.37500399 56.65433027 -14.8125 56.6484375 C-15.96878906 56.65451019 -17.12507813 56.66058289 -18.31640625 56.6668396 C-19.38761719 56.65738312 -20.45882813 56.64792664 -21.5625 56.63818359 C-22.50609375 56.63579681 -23.4496875 56.63341003 -24.421875 56.63095093 C-26.8125 56.25 -26.8125 56.25 -28.609375 54.93667603 C-30.68649985 52.02472865 -30.28745653 49.69343487 -29.8125 46.25 C-27.875 43.75 -27.875 43.75 -24.8125 41.25 C-23.69101562 40.32767578 -23.69101562 40.32767578 -22.546875 39.38671875 C-16.16457916 34.25 -16.16457916 34.25 -13.8125 34.25 C-14.1425 30.29 -14.4725 26.33 -14.8125 22.25 C-16.04226562 23.38888672 -16.04226562 23.38888672 -17.296875 24.55078125 C-18.38532716 25.55478454 -19.47387382 26.5586854 -20.5625 27.5625 C-21.10132812 28.06201172 -21.64015625 28.56152344 -22.1953125 29.07617188 C-29.90986515 36.17920511 -29.90986515 36.17920511 -34 36.5 C-36.8125 36.25 -36.8125 36.25 -37.8125 35.25 C-38.1796875 32.4375 -38.1796875 32.4375 -37.8125 29.25 C-35.7578125 27.1875 -35.7578125 27.1875 -32.9375 25.25 C-27.55152894 21.17413001 -24.00546676 16.85877688 -20.33837891 11.2109375 C-15.01017531 3.13527186 -9.79543099 0.07104574 0 0 Z " fill="#F68E8E" transform="translate(39.8125,21.75)"/>
<path d="M0 0 C0.69931641 -0.020625 1.39863281 -0.04125 2.11914062 -0.0625 C7.86511766 -0.10550076 11.82002684 1.1056903 16.09375 4.9765625 C16.6196875 5.60304688 17.145625 6.22953125 17.6875 6.875 C18.28046875 7.58011719 18.8734375 8.28523438 19.484375 9.01171875 C21.1264886 11.16981759 22.52721679 13.37350082 23.9375 15.6875 C27.05915932 20.63439182 31.2596147 23.66105721 35.9921875 27.01171875 C38.1875 29.25 38.1875 29.25 38.5703125 32.45703125 C38.1875 35.25 38.1875 35.25 37.1875 36.25 C34.17759317 36.74564334 32.06085905 36.79067377 29.41601562 35.15332031 C27.5213528 33.6242762 25.72400071 32.02902714 23.9375 30.375 C23.00164063 29.54162109 23.00164063 29.54162109 22.046875 28.69140625 C19.70291326 26.59497496 17.41134784 24.47384784 15.1875 22.25 C14.8575 26.21 14.5275 30.17 14.1875 34.25 C15.5075 34.91 16.8275 35.57 18.1875 36.25 C20.10506629 37.55188376 21.99968672 38.88795671 23.875 40.25 C25.33486328 41.301875 25.33486328 41.301875 26.82421875 42.375 C29.1875 44.25 29.1875 44.25 30.1875 46.25 C30.64862617 52.59048482 30.64862617 52.59048482 29 54.94839478 C26.55138993 56.70680783 24.93948126 56.63059021 21.9375 56.63818359 C20.86628906 56.64764008 19.79507813 56.65709656 18.69140625 56.6668396 C16.95697266 56.65773056 16.95697266 56.65773056 15.1875 56.6484375 C14.00027344 56.65130768 12.81304687 56.65417786 11.58984375 56.65713501 C9.07812015 56.65917777 6.56638072 56.65363322 4.0546875 56.64111328 C0.20276428 56.6250636 -3.64810955 56.64095588 -7.5 56.66015625 C-9.93750232 56.65817386 -12.37500399 56.65433027 -14.8125 56.6484375 C-15.96878906 56.65451019 -17.12507813 56.66058289 -18.31640625 56.6668396 C-19.38761719 56.65738312 -20.45882813 56.64792664 -21.5625 56.63818359 C-22.50609375 56.63579681 -23.4496875 56.63341003 -24.421875 56.63095093 C-26.8125 56.25 -26.8125 56.25 -28.609375 54.93667603 C-30.68649985 52.02472865 -30.28745653 49.69343487 -29.8125 46.25 C-27.875 43.75 -27.875 43.75 -24.8125 41.25 C-23.69101562 40.32767578 -23.69101562 40.32767578 -22.546875 39.38671875 C-16.16457916 34.25 -16.16457916 34.25 -13.8125 34.25 C-14.1425 30.29 -14.4725 26.33 -14.8125 22.25 C-16.04226562 23.38888672 -16.04226562 23.38888672 -17.296875 24.55078125 C-18.38532716 25.55478454 -19.47387382 26.5586854 -20.5625 27.5625 C-21.10132812 28.06201172 -21.64015625 28.56152344 -22.1953125 29.07617188 C-29.90986515 36.17920511 -29.90986515 36.17920511 -34 36.5 C-36.8125 36.25 -36.8125 36.25 -37.8125 35.25 C-38.1796875 32.4375 -38.1796875 32.4375 -37.8125 29.25 C-35.7578125 27.1875 -35.7578125 27.1875 -32.9375 25.25 C-27.55152894 21.17413001 -24.00546676 16.85877688 -20.33837891 11.2109375 C-15.01017531 3.13527186 -9.79543099 0.07104574 0 0 Z M-17.3046875 9.25390625 C-19.56809521 12.18733854 -21.71027524 15.19885434 -23.8125 18.25 C-22.5175533 21.31737248 -22.5175533 21.31737248 -19.9375 23.25 C-17.58354019 23.49226063 -17.58354019 23.49226063 -15.6796875 21.25 C-15.06351563 20.59 -14.44734375 19.93 -13.8125 19.25 C-12.37350299 30.10909777 -12.37350299 30.10909777 -13.8125 35.25 C-17.32942791 39.30758197 -21.172954 41.54825635 -25.8125 44.25 C-27.69855087 45.65718144 -27.69855087 45.65718144 -28.8125 47.25 C-28.8125 50.33333333 -28.8125 50.33333333 -27.8125 53.25 C-24.13162647 55.70391569 -21.36894412 55.47802759 -17.125 55.375 C-16.42310547 55.36597656 -15.72121094 55.35695312 -14.99804688 55.34765625 C-13.26938475 55.32413704 -11.54089855 55.28826713 -9.8125 55.25 C-9.85375 54.13625 -9.895 53.0225 -9.9375 51.875 C-9.8125 48.25 -9.8125 48.25 -7.8125 46.25 C-5.84130859 45.93115234 -5.84130859 45.93115234 -3.4609375 45.8359375 C-2.18476562 45.77792969 -2.18476562 45.77792969 -0.8828125 45.71875 C0.45136719 45.67234375 0.45136719 45.67234375 1.8125 45.625 C3.15828125 45.56699219 3.15828125 45.56699219 4.53125 45.5078125 C6.74965605 45.41341224 8.96855013 45.33061195 11.1875 45.25 C11.1875 48.55 11.1875 51.85 11.1875 55.25 C13.43643954 55.35823773 15.68687575 55.43569645 17.9375 55.5 C19.81695312 55.56960937 19.81695312 55.56960937 21.734375 55.640625 C25.21099974 55.51779355 25.21099974 55.51779355 27.703125 53.546875 C29.41965995 51.35199581 29.41965995 51.35199581 29.16796875 48.72265625 C28.03029981 45.85355489 26.87415229 44.63656598 24.5 42.6875 C23.83613281 42.12933594 23.17226563 41.57117187 22.48828125 40.99609375 C20.12755241 39.10408913 20.12755241 39.10408913 16.94140625 37.55078125 C14.1875 35.25 14.1875 35.25 13.6015625 31.359375 C13.6412248 29.90509063 13.71249299 28.45138372 13.8125 27 C13.85310547 25.88238281 13.85310547 25.88238281 13.89453125 24.7421875 C13.96499192 22.91021007 14.07261007 21.07972849 14.1875 19.25 C14.80367187 19.91386719 15.41984375 20.57773437 16.0546875 21.26171875 C16.75851563 21.91785156 17.46234375 22.57398437 18.1875 23.25 C20.58538436 23.03842197 22.04334361 22.32207819 24.1875 21.25 C23.15899272 14.92989732 18.0820319 8.94352274 13.5 4.6796875 C3.27275431 -2.51134462 -9.75249706 0.15103094 -17.3046875 9.25390625 Z " fill="#CB4B49" transform="translate(39.8125,21.75)"/>
<path d="M0 0 C2.5 1.5 2.5 1.5 4 4 C4.791013 8.02098277 4.62153384 10.96411027 2.5 14.5 C-1.03588973 16.62153384 -3.97901723 16.791013 -8 16 C-10.5 14.5 -10.5 14.5 -12 12 C-12.791013 7.97901723 -12.62153384 5.03588973 -10.5 1.5 C-6.96411027 -0.62153384 -4.02098277 -0.791013 0 0 Z " fill="#FCEBA0" transform="translate(44,2)"/>
<path d="M0 0 C1.57043101 0.01330874 3.14079971 0.03717648 4.7109375 0.0703125 C5.51273438 0.07933594 6.31453125 0.08835937 7.140625 0.09765625 C9.12252273 0.12125027 11.10426731 0.15712185 13.0859375 0.1953125 C13.0859375 3.1653125 13.0859375 6.1353125 13.0859375 9.1953125 C10.12736341 9.24910476 7.16976029 9.28888343 4.2109375 9.3203125 C2.94830078 9.34544922 2.94830078 9.34544922 1.66015625 9.37109375 C0.85449219 9.37753906 0.04882812 9.38398437 -0.78125 9.390625 C-1.52487793 9.40109863 -2.26850586 9.41157227 -3.03466797 9.42236328 C-4.9140625 9.1953125 -4.9140625 9.1953125 -6.9140625 7.1953125 C-6.39289795 1.98366705 -5.48917546 0.27391095 0 0 Z " fill="#FEECA2" transform="translate(36.9140625,67.8046875)"/>
<path d="M0 0 C0.75667969 0.66515625 1.51335938 1.3303125 2.29296875 2.015625 C4.88870828 4.36942649 4.88870828 4.36942649 8.3125 3.75 C9.199375 3.5025 10.08625 3.255 11 3 C9.68 4.32 8.36 5.64 7 7 C3.125 5.125 3.125 5.125 2 4 C1.67 7.96 1.34 11.92 1 16 C2.32 16.66 3.64 17.32 5 18 C6.91756629 19.30188376 8.81218672 20.63795671 10.6875 22 C11.66074219 22.70125 12.63398437 23.4025 13.63671875 24.125 C16 26 16 26 17 28 C17.46365528 34.37526008 17.46365528 34.37526008 15.73510742 36.7043457 C13.62640399 38.27897482 12.59360786 38.35173552 9.98828125 38.29296875 C9.23095703 38.28330078 8.47363281 38.27363281 7.69335938 38.26367188 C6.90767578 38.23853516 6.12199219 38.21339844 5.3125 38.1875 C4.11657227 38.16719727 4.11657227 38.16719727 2.89648438 38.14648438 C0.93070033 38.11117089 -1.03473582 38.05736447 -3 38 C-3 34.7 -3 31.4 -3 28 C-8.61 28 -14.22 28 -20 28 C-20 27.67 -20 27.34 -20 27 C-14.06 27 -8.12 27 -2 27 C-2 30.3 -2 33.6 -2 37 C0.27155498 36.91297874 2.54230743 36.80480478 4.8125 36.6875 C6.07707031 36.62949219 7.34164062 36.57148437 8.64453125 36.51171875 C11.90594492 36.23592588 11.90594492 36.23592588 14.01171875 34.76953125 C15.19130082 32.98933815 15.19130082 32.98933815 15.0234375 30.60546875 C13.63203128 27.06322466 11.61935392 25.62703341 8.625 23.3125 C7.64789063 22.54550781 6.67078125 21.77851562 5.6640625 20.98828125 C3.81352178 19.60715922 1.92129746 18.28086498 0 17 C-0.2208564 14.04935852 -0.28060989 11.31631769 -0.1875 8.375 C-0.16719727 7.17230469 -0.16719727 7.17230469 -0.14648438 5.9453125 C-0.11109051 3.96325622 -0.05728234 1.98154449 0 0 Z " fill="#CA4847" transform="translate(53,40)"/>
<path d="M0 0 C3.2826932 1.49076434 5.93077441 3.38620321 8.75 5.625 C9.94882813 6.57246094 9.94882813 6.57246094 11.171875 7.5390625 C11.77515625 8.02117188 12.3784375 8.50328125 13 9 C12.67 10.65 12.34 12.3 12 14 C7.2809009 13.53234153 5.08167683 11.65065406 1.6875 8.4375 C0.80449219 7.61121094 -0.07851563 6.78492188 -0.98828125 5.93359375 C-1.65214844 5.29550781 -2.31601562 4.65742187 -3 4 C-2.01 2.68 -1.02 1.36 0 0 Z " fill="#FBE99E" transform="translate(64,43)"/>
<path d="M0 0 C1.32 0.66 2.64 1.32 4 2 C4 5 4 5 1.98828125 7.296875 C1.10527344 8.10640625 0.22226563 8.9159375 -0.6875 9.75 C-1.55761719 10.56984375 -2.42773438 11.3896875 -3.32421875 12.234375 C-6 14 -6 14 -8.83203125 13.765625 C-9.54746094 13.51296875 -10.26289063 13.2603125 -11 13 C-10.71468734 9.53375469 -10.24222529 8.23725656 -7.71484375 5.76171875 C-6.79832031 5.07722656 -5.88179687 4.39273438 -4.9375 3.6875 C-4.01839844 2.99011719 -3.09929688 2.29273438 -2.15234375 1.57421875 C-1.44207031 1.05472656 -0.73179688 0.53523438 0 0 Z " fill="#FBE99E" transform="translate(14,43)"/>
<path d="M0 0 C0.99 0.33 1.98 0.66 3 1 C2.484375 1.37125 1.96875 1.7425 1.4375 2.125 C-0.34104523 4.02101482 -0.34104523 4.02101482 0.1875 7.125 C0.5896875 8.548125 0.5896875 8.548125 1 10 C4.00313748 11.50156874 6.79067522 11.09281204 10.125 11.0625 C11.40632813 11.05347656 12.68765625 11.04445313 14.0078125 11.03515625 C15.48894531 11.01775391 15.48894531 11.01775391 17 11 C16.95875 10.04867187 16.9175 9.09734375 16.875 8.1171875 C17 5 17 5 19 3.125 C19.66 2.75375 20.32 2.3825 21 2 C20.649375 2.556875 20.29875 3.11375 19.9375 3.6875 C18.59915036 6.37976845 18.59915036 6.37976845 20 11 C25.94 11.33 31.88 11.66 38 12 C38 12.33 38 12.66 38 13 C32.78559487 13.07412765 27.57149607 13.12859104 22.35668945 13.16479492 C20.58254657 13.17988641 18.80844102 13.20036191 17.03442383 13.22631836 C14.48509513 13.26268641 11.93625941 13.27972238 9.38671875 13.29296875 C8.59287277 13.30845261 7.79902679 13.32393646 6.98112488 13.33988953 C1.52687137 13.34155844 1.52687137 13.34155844 -1.00463867 11.70043945 C-2.68343193 8.8324495 -2.28813132 6.22707078 -2 3 C-1.34 2.01 -0.68 1.02 0 0 Z " fill="#C85F4C" transform="translate(12,65)"/>
<path d="M0 0 C2.5 1.5 2.5 1.5 4 4 C4.791013 8.02098277 4.62153384 10.96411027 2.5 14.5 C-1.03588973 16.62153384 -3.97901723 16.791013 -8 16 C-10.5 14.5 -10.5 14.5 -12 12 C-12.791013 7.97901723 -12.62153384 5.03588973 -10.5 1.5 C-6.96411027 -0.62153384 -4.02098277 -0.791013 0 0 Z M-11 5 C-10.93875588 8.49091478 -10.59363052 10.94465686 -8.875 14 C-5.71776567 15.68385831 -3.34888492 14.89702275 0 14 C2.33535705 11.89064525 2.88641368 10.5679316 3.5 7.5 C3.18795738 4.78845769 3.18795738 4.78845769 0.8125 2.6875 C-4.16930207 -0.30158124 -7.66603858 -0.00094213 -11 5 Z " fill="#BFA24F" transform="translate(44,2)"/>
<path d="M0 0 C5.27528429 1.48367371 9.48051605 4.88254547 13 9 C13.5625 12.375 13.5625 12.375 13 15 C12 16 12 16 9.3359375 16.375 C4.99393703 15.88690627 2.73426542 13.84056347 -0.375 11 C-1.19291016 10.28457031 -1.19291016 10.28457031 -2.02734375 9.5546875 C-3.36317833 8.38290278 -4.6832407 7.19317995 -6 6 C-5.34 5.34 -4.68 4.68 -4 4 C-2.87851562 5.0828125 -2.87851562 5.0828125 -1.734375 6.1875 C-0.74007372 7.12552008 0.25474521 8.06299167 1.25 9 C1.74113281 9.47695313 2.23226562 9.95390625 2.73828125 10.4453125 C5.82285731 13.32425015 6.60197923 14 11 14 C11 12.68 11 11.36 11 10 C8.5701439 7.56346706 8.5701439 7.56346706 5.5 5.3125 C3.65541447 3.88946747 1.81890451 2.45571416 0 1 C0 0.67 0 0.34 0 0 Z " fill="#BFA24F" transform="translate(65,42)"/>
<path d="M0 0 C0.66 0.33 1.32 0.66 2 1 C1.2059375 1.60328125 0.411875 2.2065625 -0.40625 2.828125 C-1.4271875 3.62734375 -2.448125 4.4265625 -3.5 5.25 C-4.5209375 6.03890625 -5.541875 6.8278125 -6.59375 7.640625 C-7.3878125 8.41921875 -8.181875 9.1978125 -9 10 C-9 11.32 -9 12.64 -9 14 C-4.2809009 13.53234153 -2.08167683 11.65065406 1.3125 8.4375 C2.19550781 7.61121094 3.07851563 6.78492188 3.98828125 5.93359375 C4.98408203 4.97646484 4.98408203 4.97646484 6 4 C6.33 4.99 6.66 5.98 7 7 C5.30749327 8.51783522 3.59526114 10.01369438 1.875 11.5 C0.92367188 12.3353125 -0.02765625 13.170625 -1.0078125 14.03125 C-4.37888008 16.24928925 -6.04764366 16.50406863 -10 16 C-11 15 -11 15 -11.40625 12.2421875 C-11 9 -11 9 -8.59375 6.4453125 C-7.5728125 5.67960937 -6.551875 4.91390625 -5.5 4.125 C-4.4790625 3.34382813 -3.458125 2.56265625 -2.40625 1.7578125 C-1.6121875 1.17773438 -0.818125 0.59765625 0 0 Z " fill="#BEA14E" transform="translate(13,42)"/>
<path d="M0 0 C0.66 0.33 1.32 0.66 2 1 C-0.97 3.64 -3.94 6.28 -7 9 C-7.33 8.01 -7.66 7.02 -8 6 C-5.36 4.02 -2.72 2.04 0 0 Z " fill="#C0A452" transform="translate(13,42)"/>
</svg>
