<?xml version="1.0" standalone="no"?>
<!DOCTYPE svg PUBLIC "-//W3C//DTD SVG 20010904//EN"
 "http://www.w3.org/TR/2001/REC-SVG-20010904/DTD/svg10.dtd">
<svg version="1.0" xmlns="http://www.w3.org/2000/svg"
 width="100.000000pt" height="100.000000pt" viewBox="0 0 100.000000 100.000000"
 preserveAspectRatio="xMidYMid meet">

<g transform="translate(0.000000,100.000000) scale(0.100000,-0.100000)"
fill="#000000" stroke="none">
<path d="M265 948 c-3 -8 -4 -97 -3 -198 l3 -185 120 -5 c95 -4 126 -9 148
-24 26 -18 28 -18 55 0 21 15 52 20 147 24 l120 5 0 195 0 195 -140 -2 c-77 0
-147 -1 -155 -1 -8 0 -77 2 -153 4 -109 4 -138 2 -142 -8z m263 -40 c8 -8 12
-61 12 -171 0 -148 -1 -159 -17 -151 -10 5 -64 10 -120 12 l-103 3 0 160 0
159 108 0 c71 0 112 -4 120 -12z m292 -147 l0 -160 -102 -3 c-57 -2 -111 -7
-120 -12 -17 -8 -18 3 -18 151 0 110 4 163 12 171 8 8 49 12 120 12 l108 0 0
-159z"/>
<path d="M743 386 l-121 -75 -119 53 c-159 71 -187 79 -247 73 -65 -7 -210
-68 -214 -90 -5 -24 14 -21 114 19 113 46 148 43 302 -24 134 -58 168 -81 159
-105 -9 -24 -33 -21 -143 14 -64 20 -100 27 -106 21 -6 -6 -7 -15 -4 -21 9
-14 189 -71 226 -71 43 0 74 34 67 74 -5 30 -2 33 110 100 91 55 119 67 132
59 31 -20 23 -41 -31 -80 -125 -92 -340 -233 -355 -233 -10 0 -74 23 -144 50
-70 28 -140 50 -155 50 -62 -1 -191 -86 -167 -110 9 -10 25 -3 73 29 38 25 74
41 92 41 16 0 84 -22 150 -50 66 -27 134 -50 150 -50 20 0 84 37 216 126 202
135 232 162 232 200 0 31 -42 74 -72 74 -13 0 -78 -33 -145 -74z"/>
</g>
</svg>
